<?xml version="1.0" standalone="no"?>
<!DOCTYPE svg PUBLIC "-//W3C//DTD SVG 20010904//EN"
 "http://www.w3.org/TR/2001/REC-SVG-20010904/DTD/svg10.dtd">
<svg version="1.0" xmlns="http://www.w3.org/2000/svg"
 width="97.000000pt" height="96.000000pt" viewBox="0 0 97.000000 96.000000"
 preserveAspectRatio="xMidYMid meet">
<metadata>
Created by potrace 1.16, written by Peter Selinger 2001-2019
</metadata>
<g transform="translate(0.000000,96.000000) scale(0.100000,-0.100000)"
fill="#000000" stroke="none">
<path d="M730 885 l0 -45 -309 0 c-303 0 -309 0 -341 -22 -48 -34 -70 -81 -70
-155 0 -49 3 -63 15 -63 12 0 15 -29 17 -177 l3 -178 47 -3 47 -3 -5 -43 c-11
-79 41 -136 123 -136 79 0 133 66 120 146 l-6 34 75 0 74 0 0 -90 0 -90 35 0
c32 0 35 2 35 30 l0 30 70 0 70 0 0 -30 c0 -28 3 -30 35 -30 l35 0 0 90 0 89
73 3 72 3 3 178 c1 107 6 177 12 177 6 0 10 34 10 79 0 64 -4 83 -21 105 -28
35 -70 56 -114 56 -35 0 -35 0 -35 45 0 45 0 45 -35 45 -35 0 -35 0 -35 -45z
m156 -138 c14 -16 24 -41 24 -58 l0 -29 -415 0 -415 0 0 26 c0 37 18 64 53 80
26 11 99 13 380 11 l349 -2 24 -28z m-366 -297 l0 -150 -205 0 -205 0 0 150 0
150 205 0 205 0 0 -150z m210 60 l0 -90 -70 0 -70 0 0 90 0 90 70 0 70 0 0
-90z m150 -60 l0 -150 -40 0 -40 0 0 150 0 150 40 0 40 0 0 -150z"/>
</g>
</svg>
