<?xml version="1.0" standalone="no"?>
<!DOCTYPE svg PUBLIC "-//W3C//DTD SVG 20010904//EN"
 "http://www.w3.org/TR/2001/REC-SVG-20010904/DTD/svg10.dtd">
<svg version="1.0" xmlns="http://www.w3.org/2000/svg"
 width="96.000000pt" height="96.000000pt" viewBox="0 0 96.000000 96.000000"
 preserveAspectRatio="xMidYMid meet">
<metadata>
Created by potrace 1.16, written by Peter Selinger 2001-2019
</metadata>
<g transform="translate(0.000000,96.000000) scale(0.100000,-0.100000)"
fill="#000000" stroke="none">
<path d="M529 892 c-41 -38 -43 -43 -47 -105 l-4 -66 -102 -3 -101 -3 -47 -90
c-26 -49 -47 -93 -48 -97 0 -4 13 -14 30 -23 l30 -15 42 85 42 85 48 0 48 0
-37 -74 c-32 -64 -41 -75 -73 -85 -49 -15 -114 -72 -139 -124 -39 -80 -24
-206 31 -264 l21 -23 -96 0 -97 0 0 -30 0 -30 450 0 450 0 0 30 0 30 -83 0
-83 0 20 98 c29 146 21 160 -106 178 -27 3 -48 10 -48 16 0 5 16 44 36 88 28
61 35 88 32 121 -3 39 0 45 36 79 37 35 40 42 44 103 4 65 4 66 -36 108 -37
41 -43 43 -105 47 -65 4 -66 4 -108 -36z m160 -57 c46 -45 25 -111 -46 -140
-39 -17 -53 -57 -29 -84 9 -10 16 -25 16 -34 0 -14 -45 -125 -54 -135 -2 -2
-23 10 -46 27 -22 16 -54 33 -71 36 -16 4 -29 9 -29 11 0 2 16 36 36 75 31 63
38 70 58 65 19 -5 26 0 36 24 10 25 10 36 -4 64 -18 38 -11 70 20 97 40 34 73
32 113 -6z m-219 -410 c29 -15 62 -50 80 -84 17 -33 15 -112 -3 -148 -21 -39
-71 -81 -105 -89 -15 -3 -33 -8 -41 -10 -44 -14 -138 41 -168 99 -20 39 -20
115 0 154 21 39 71 81 105 89 15 3 32 7 37 9 16 4 68 -7 95 -20z m259 -140 c3
-4 -23 -133 -35 -177 -4 -15 -17 -18 -69 -18 l-65 0 32 45 c25 35 33 58 36
106 l5 61 46 -7 c25 -4 48 -8 50 -10z"/>
</g>
</svg>
