<?xml version="1.0" standalone="no"?>
<!DOCTYPE svg PUBLIC "-//W3C//DTD SVG 20010904//EN"
 "http://www.w3.org/TR/2001/REC-SVG-20010904/DTD/svg10.dtd">
<svg version="1.0" xmlns="http://www.w3.org/2000/svg"
 width="96.000000pt" height="96.000000pt" viewBox="0 0 96.000000 96.000000"
 preserveAspectRatio="xMidYMid meet">
<metadata>
Created by potrace 1.16, written by Peter Selinger 2001-2019
</metadata>
<g transform="translate(0.000000,96.000000) scale(0.100000,-0.100000)"
fill="#000000" stroke="none">
<path d="M100 881 c-6 -13 -10 -160 -10 -410 0 -376 1 -391 19 -401 13 -6 151
-10 380 -10 346 0 361 1 371 19 6 13 10 160 10 410 0 376 -1 391 -19 401 -13
6 -151 10 -380 10 -346 0 -361 -1 -371 -19z m710 -401 l0 -360 -90 0 -90 0 0
225 0 226 -39 41 c-36 40 -42 42 -104 46 -65 4 -66 4 -109 -36 l-43 -41 -3
-230 -3 -231 -90 0 -89 0 0 360 0 360 330 0 330 0 0 -360z m-270 84 c22 -22
25 -34 28 -114 l4 -90 -92 0 -92 0 4 89 c2 72 7 93 23 111 41 45 81 46 125 4z"/>
</g>
</svg>
