<?xml version="1.0" standalone="no"?>
<!DOCTYPE svg PUBLIC "-//W3C//DTD SVG 20010904//EN"
 "http://www.w3.org/TR/2001/REC-SVG-20010904/DTD/svg10.dtd">
<svg version="1.0" xmlns="http://www.w3.org/2000/svg"
 width="96.000000pt" height="96.000000pt" viewBox="0 0 96.000000 96.000000"
 preserveAspectRatio="xMidYMid meet">
<metadata>
Created by potrace 1.16, written by Peter Selinger 2001-2019
</metadata>
<g transform="translate(0.000000,96.000000) scale(0.100000,-0.100000)"
fill="#000000" stroke="none">
<path d="M65 888 c-3 -7 -4 -195 -3 -418 l3 -405 415 0 415 0 0 415 0 415
-413 3 c-325 2 -414 0 -417 -10z m775 -138 l0 -90 -360 0 -360 0 0 90 0 90
360 0 360 0 0 -90z m0 -225 l0 -75 -35 0 c-25 0 -44 -8 -60 -25 -24 -23 -25
-29 -25 -165 l0 -140 -30 0 -30 0 0 129 c0 117 -2 131 -23 162 -23 34 -132
118 -154 119 -17 0 -114 -63 -139 -91 -39 -44 -44 -65 -44 -193 l0 -126 -30 0
-30 0 0 140 c0 136 -1 142 -25 165 -16 17 -35 25 -60 25 l-35 0 0 75 0 75 360
0 360 0 0 -75z m-311 -106 c44 -31 71 -79 71 -124 l0 -25 -120 0 -120 0 0 25
c0 45 27 93 71 124 23 17 45 31 49 31 4 0 26 -14 49 -31z m-355 -55 c3 -9 6
-67 6 -130 l0 -114 -30 0 -30 0 0 114 c0 127 4 146 30 146 10 0 21 -7 24 -16z
m660 0 c3 -9 6 -67 6 -130 l0 -114 -30 0 -30 0 0 114 c0 127 4 146 30 146 10
0 21 -7 24 -16z m-234 -199 l0 -45 -120 0 -120 0 0 45 0 45 120 0 120 0 0 -45z"/>
</g>
</svg>
