<?xml version="1.0" standalone="no"?>
<!DOCTYPE svg PUBLIC "-//W3C//DTD SVG 20010904//EN"
 "http://www.w3.org/TR/2001/REC-SVG-20010904/DTD/svg10.dtd">
<svg version="1.0" xmlns="http://www.w3.org/2000/svg"
 width="97.000000pt" height="96.000000pt" viewBox="0 0 97.000000 96.000000"
 preserveAspectRatio="xMidYMid meet">

<g transform="translate(0.000000,96.000000) scale(0.100000,-0.100000)"
fill="#000000" stroke="none">
<path d="M482 883 c-5 -10 -15 -39 -22 -65 -13 -51 -17 -53 -68 -39 -29 9 -33
7 -38 -15 -3 -13 -1 -31 6 -39 15 -18 -5 -85 -26 -85 -19 0 -31 -50 -14 -60
19 -12 -5 -94 -25 -86 -18 6 -30 -42 -15 -60 16 -19 2 -75 -20 -81 -23 -6 -36
-53 -18 -64 10 -6 8 -24 -8 -86 l-20 -78 -72 -3 -72 -3 0 -29 0 -30 425 0 425
0 0 30 0 30 -135 0 c-139 0 -144 2 -127 40 4 8 13 15 21 15 8 0 18 12 22 28 5
20 4 27 -7 27 -17 0 -17 4 -4 51 6 23 18 39 30 42 22 6 29 52 9 59 -8 3 -8 15
0 45 8 30 16 41 26 37 18 -7 33 45 16 56 -17 10 -3 80 18 88 20 7 31 22 31 44
0 11 -12 18 -40 23 -45 8 -46 11 -24 85 13 45 14 55 2 67 -14 13 -216 72 -250
73 -10 0 -21 -8 -26 -17z m140 -73 c39 -11 72 -21 74 -23 2 -1 -2 -21 -7 -44
l-11 -41 -76 20 c-43 12 -81 24 -85 28 -13 12 3 80 19 80 8 0 46 -9 86 -20z
m-144 -161 c-8 -31 -15 -39 -34 -39 -32 0 -37 13 -23 59 11 37 13 39 39 29 26
-9 27 -11 18 -49z m111 12 c12 -8 13 -16 3 -49 -10 -33 -16 -39 -32 -35 -28 7
-32 17 -24 58 6 36 24 44 53 26z m118 -29 c9 -6 9 -18 2 -49 -10 -38 -13 -40
-37 -34 -29 8 -30 11 -18 59 8 32 27 41 53 24z m-260 -86 c1 -1 -3 -21 -9 -45
-10 -39 -13 -42 -37 -36 -35 9 -34 7 -20 55 11 37 15 41 38 35 14 -4 27 -8 28
-9z m112 -32 c6 -5 -9 -73 -18 -78 -4 -3 -18 -2 -30 1 -20 5 -22 10 -16 42 4
20 9 39 12 44 4 7 41 1 52 -9z m119 -29 c2 -2 -2 -22 -8 -45 -10 -39 -13 -41
-38 -35 -15 4 -28 8 -29 9 -1 1 3 21 9 44 10 38 12 41 37 35 14 -3 27 -7 29
-8z m-274 -83 c11 -18 -15 -82 -32 -82 -34 0 -42 14 -31 53 8 30 15 37 34 37
13 0 26 -4 29 -8z m109 -27 c11 -5 12 -13 3 -46 -9 -35 -14 -40 -36 -37 -21 3
-25 8 -23 32 4 54 16 66 56 51z m115 -34 c11 -6 11 -17 3 -49 -10 -36 -14 -40
-36 -34 -30 8 -30 8 -21 55 7 38 25 47 54 28z m-170 -107 c76 -21 138 -38 140
-39 2 -2 0 -19 -3 -39 -7 -33 -10 -36 -40 -36 -25 0 -32 4 -31 18 2 27 -50 29
-59 3 -4 -15 -15 -21 -36 -21 -29 0 -30 1 -23 35 5 31 4 35 -15 35 -11 0 -24
1 -28 3 -4 1 -11 -15 -16 -35 -8 -33 -13 -38 -38 -38 -16 0 -29 5 -29 10 0 19
32 140 37 140 3 0 66 -16 141 -36z"/>
</g>
</svg>
