<?xml version="1.0" standalone="no"?>
<!DOCTYPE svg PUBLIC "-//W3C//DTD SVG 20010904//EN"
 "http://www.w3.org/TR/2001/REC-SVG-20010904/DTD/svg10.dtd">
<svg version="1.0" xmlns="http://www.w3.org/2000/svg"
 width="96.000000pt" height="96.000000pt" viewBox="0 0 96.000000 96.000000"
 preserveAspectRatio="xMidYMid meet">

<g transform="translate(0.000000,96.000000) scale(0.100000,-0.100000)"
fill="#000000" stroke="none">
<path d="M256 769 c-104 -49 -198 -97 -208 -106 -17 -15 -18 -29 -13 -147 3
-72 5 -144 5 -161 -5 -175 -3 -223 13 -258 l16 -37 413 2 412 3 19 60 c15 47
17 76 12 135 -7 85 -7 79 0 256 5 119 4 132 -13 147 -35 32 -402 197 -435 196
-18 0 -117 -41 -221 -90z m427 -56 c178 -83 187 -88 187 -115 l0 -28 -390 0
-390 0 0 28 c0 26 10 32 188 115 103 47 194 87 202 87 8 0 99 -39 203 -87z
m-353 -338 l0 -135 -120 0 c-118 0 -120 0 -120 23 1 64 5 67 96 67 l84 0 0 30
0 30 -80 0 c-75 0 -81 2 -91 24 -7 14 -9 40 -5 60 l7 36 114 0 115 0 0 -135z
m240 0 l0 -135 -90 0 -90 0 0 135 0 135 90 0 90 0 0 -135z m291 111 c7 -14 9
-40 5 -60 l-7 -36 -84 0 -85 0 0 -30 0 -30 80 0 c77 0 81 -1 90 -26 24 -63 22
-64 -110 -64 l-120 0 0 135 0 135 110 0 c107 0 111 -1 121 -24z m-1 -323 c-1
-44 1 -43 -385 -41 l-369 3 -7 28 -7 27 384 0 c359 0 384 -1 384 -17z"/>
<path d="M462 441 c-23 -14 -10 -46 18 -46 20 0 25 5 25 25 0 26 -20 36 -43
21z"/>
</g>
</svg>
