<svg width="385" height="385" viewBox="0 0 385 385" fill="none" xmlns="http://www.w3.org/2000/svg">
<path d="M380.6 323.1L249.4 191.4L380.9 61.4C386.3 56 386.3 47.2 380.9 41.8L343.5 4.19995C340.9 1.59995 337.4 0.199951 333.7 0.199951C330 0.199951 326.5 1.69995 323.9 4.19995L193 133.8L61.9 4.29996C59.3 1.69996 55.7999 0.299957 52.0999 0.299957C48.3999 0.299957 44.9 1.79996 42.3 4.29996L4.99995 41.9C-0.400049 47.3 -0.400049 56.1 4.99995 61.5L136.5 191.5L5.39995 323.1C2.79995 325.7 1.29995 329.2 1.29995 332.9C1.29995 336.6 2.69995 340.1 5.39995 342.7L42.8 380.3C45.5 383 48.9999 384.4 52.5999 384.4C56.0999 384.4 59.7 383.1 62.4 380.3L193 249.1L323.7 380.2C326.4 382.9 329.9 384.3 333.5 384.3C337 384.3 340.6 383 343.3 380.2L380.7 342.6C383.3 340 384.8 336.5 384.8 332.8C384.7 329.2 383.2 325.7 380.6 323.1Z" fill="white"/>
</svg>
