<svg width="59" height="49" viewBox="0 0 59 49" fill="none" xmlns="http://www.w3.org/2000/svg">
<path d="M29.4605 14.4538H29.9605C29.9605 10.7021 31.5854 7.41282 34.1472 4.98594C36.7881 2.55391 40.2777 1.00586 44.1908 1.00586C48.1797 1.00586 51.6662 2.55539 54.2292 4.98112C56.7977 7.48178 58.421 10.7739 58.421 14.4538C58.421 18.2069 56.795 21.497 54.2318 23.9241L29.4605 47.3799L4.69414 23.9289C4.69332 23.9281 4.6925 23.9273 4.69168 23.9265C2.12329 21.4258 0.5 18.1337 0.5 14.4538C0.5 10.702 2.12493 7.4128 4.68674 4.98591C7.32766 2.5539 10.8172 1.00586 14.7302 1.00586C18.7192 1.00586 22.2058 2.55545 24.7688 4.98125C27.3372 7.48189 28.9605 10.774 28.9605 14.4538H29.4605Z" fill="#E74646" fill-opacity="0.69" stroke="black"/>
</svg>
