<svg width="56" height="58" fill="none" xmlns="http://www.w3.org/2000/svg"><g filter="url(#a)"><g filter="url(#b)"><g filter="url(#c)"><rect x="5" y="3" width="46" height="48" rx="23" fill="#fff"/></g></g><path fill-rule="evenodd" clip-rule="evenodd" d="M28 15c-7.176 0-13 5.376-13 12s5.824 12 13 12 13-5.376 13-12-5.824-12-13-12Zm0 3.6c2.158 0 3.9 1.608 3.9 3.6s-1.742 3.6-3.9 3.6-3.9-1.608-3.9-3.6 1.742-3.6 3.9-3.6Zm0 17.04c-3.25 0-6.123-1.536-7.8-3.864.039-2.388 5.2-3.696 7.8-3.696 2.587 0 7.761 1.308 7.8 3.696-1.677 2.328-4.55 3.864-7.8 3.864Z" fill="#C3CAD9"/></g><defs><filter id="a" x="0" y="0" width="56" height="58" filterUnits="userSpaceOnUse" color-interpolation-filters="sRGB"><feFlood flood-opacity="0" result="BackgroundImageFix"/><feColorMatrix in="SourceAlpha" values="0 0 0 0 0 0 0 0 0 0 0 0 0 0 0 0 0 0 127 0" result="hardAlpha"/><feOffset dy="2"/><feGaussianBlur stdDeviation="2.5"/><feComposite in2="hardAlpha" operator="out"/><feColorMatrix values="0 0 0 0 0.14902 0 0 0 0 0.2 0 0 0 0 0.301961 0 0 0 0.03 0"/><feBlend in2="BackgroundImageFix" result="effect1_dropShadow_115_3462"/><feBlend in="SourceGraphic" in2="effect1_dropShadow_115_3462" result="shape"/></filter><filter id="b" x="0" y="0" width="56" height="58" filterUnits="userSpaceOnUse" color-interpolation-filters="sRGB"><feFlood flood-opacity="0" result="BackgroundImageFix"/><feColorMatrix in="SourceAlpha" values="0 0 0 0 0 0 0 0 0 0 0 0 0 0 0 0 0 0 127 0" result="hardAlpha"/><feOffset dy="2"/><feGaussianBlur stdDeviation="2.5"/><feComposite in2="hardAlpha" operator="out"/><feColorMatrix values="0 0 0 0 0.14902 0 0 0 0 0.2 0 0 0 0 0.301961 0 0 0 0.03 0"/><feBlend in2="BackgroundImageFix" result="effect1_dropShadow_115_3462"/><feBlend in="SourceGraphic" in2="effect1_dropShadow_115_3462" result="shape"/></filter><filter id="c" x="0" y="0" width="56" height="58" filterUnits="userSpaceOnUse" color-interpolation-filters="sRGB"><feFlood flood-opacity="0" result="BackgroundImageFix"/><feColorMatrix in="SourceAlpha" values="0 0 0 0 0 0 0 0 0 0 0 0 0 0 0 0 0 0 127 0" result="hardAlpha"/><feOffset dy="2"/><feGaussianBlur stdDeviation="2.5"/><feColorMatrix values="0 0 0 0 0.14902 0 0 0 0 0.2 0 0 0 0 0.301961 0 0 0 0.03 0"/><feBlend in2="BackgroundImageFix" result="effect1_dropShadow_115_3462"/><feBlend in="SourceGraphic" in2="effect1_dropShadow_115_3462" result="shape"/></filter></defs></svg>